<svg fill="#000000" xmlns="http://www.w3.org/2000/svg"  viewBox="0 0 24 24" width="24px" height="24px"><path d="M 7.0996094 2 L 7.0351562 2.0175781 L 7.96875 5.3769531 C 7.95275 5.4029531 7.9323438 5.4374688 7.9023438 5.4804688 C 7.5593438 5.9904688 6.6116406 7.017875 5.3066406 8.296875 C 4.8156406 8.777875 4.5037344 9.4194688 4.4277344 10.105469 L 4.4042969 10.324219 L 2 10 L 0 13 L 4.0429688 13.550781 L 4.0058594 13.890625 C 3.9668594 14.241625 4.1173906 14.588781 4.4003906 14.800781 L 6.3359375 16.251953 L 3 19 L 6 19.998047 L 9.1523438 17.402344 L 10.875 18.78125 A 1.0001 1.0001 0 0 0 11.798828 18.953125 L 13.703125 18.355469 A 1.0001 1.0001 0 0 0 13.851562 18.294922 C 13.872685 18.284317 13.889356 18.267027 13.910156 18.255859 C 14.01107 18.440913 14.122013 18.612382 14.234375 18.769531 C 14.45971 19.084685 14.698564 19.343056 14.949219 19.550781 C 15.199874 19.758506 15.356754 20 16 20 A 1.0001 1.0001 0 0 0 16.800781 19.599609 L 19.730469 15.691406 L 22 16 L 24 13 L 19.794922 12.427734 C 19.740232 11.807788 19.696308 11.235306 19.615234 10.527344 L 19.615234 10.525391 C 19.581064 10.161875 19.523554 9.8224516 19.457031 9.5117188 L 19.457031 9.5097656 C 19.420627 9.3395625 19.368323 9.1868275 19.322266 9.0273438 L 23 6 L 20 5 L 18.013672 6.6328125 L 17.976562 6.59375 A 1.0001 1.0001 0 0 0 17.966797 6.5839844 L 17.722656 6.3242188 C 17.25984 5.6571806 17 4.8543732 17 4.0390625 L 17 2 L 15 2 L 15 4.0390625 C 15 5.2761822 15.382846 6.4847875 16.091797 7.4941406 A 1.0001 1.0001 0 0 0 16.181641 7.6054688 L 16.507812 7.9511719 L 16.607422 8.0585938 C 17.007039 8.5057199 17.313749 9.0485477 17.501953 9.9296875 C 17.555143 10.177889 17.599213 10.437869 17.625 10.712891 A 1.0001 1.0001 0 0 0 17.626953 10.734375 C 17.690113 11.283379 17.719961 11.681196 17.763672 12.152344 L 14 11.640625 L 13 12.570312 L 13 14.779297 L 13.902344 14.902344 L 13.15625 16.332031 C 13.11044 16.396421 13.04856 16.445995 12.978516 16.486328 L 11.708984 16.886719 L 10.232422 15.705078 L 11 12.412109 L 7.9257812 14.943359 L 6.0566406 13.542969 L 6.4140625 10.326172 C 6.4390625 10.097172 6.5420781 9.8846094 6.7050781 9.7246094 C 7.7100781 8.7416094 9.0215469 7.3986562 9.5605469 6.5976562 C 9.7035469 6.3866562 10 5.9464688 10 5.3554688 C 10 5.2654688 9.9878437 5.1748906 9.9648438 5.0878906 L 9.1074219 2 L 7.0996094 2 z M 0 14.009766 L 0 22 L 1 22 L 1 14.144531 L 0 14.009766 z M 24 14.802734 L 23 16.302734 L 23 22 L 24 22 L 24 14.802734 z M 16.007812 15.1875 L 17.460938 15.384766 L 15.839844 17.544922 C 15.612925 17.21122 15.424436 16.784389 15.392578 16.367188 L 16.007812 15.1875 z M 20 16.738281 L 20 22 L 21 22 L 21 16.873047 L 20 16.738281 z M 9 18.560547 L 9 22 L 10 22 L 10 19.361328 L 9 18.560547 z M 18 19.666016 L 17 21 L 17 22 L 18 22 L 18 19.666016 z M 5 20.720703 L 5 22 L 6 22 L 6 21.052734 L 5 20.720703 z"/></svg>